# xmcd
#
# Track frame offsets: 
#        150
#        9800
#        21607
#        43095
#        60685
#        73082
#        88355
#        99600
#        114570
#        121332
#        136862
#        146140
#        162530
#        172420
#        185865
#        203247
#
# Disc length: 2898 seconds
#
# Revision: 1
# Processed by: cddbd v1.5.2PL0 Copyright (c) Steve Scherf et al.
# Submitted via: ExactAudioCopy v0.99pb5
#
DISCID=fb0b5010
DTITLE=Eels - Electro-Shock Blues
DYEAR=1998
DGENRE=
TTITLE0=Elizabeth on the Bathroom Floor
TTITLE1=Going to Your Funeral Part I
TTITLE2=Cancer for the Cure
TTITLE3=My Descent Into Madness
TTITLE4=3 Speed
TTITLE5=Hospital Food
TTITLE6=Electro-Shock Blues
TTITLE7=Efils' God
TTITLE8=Going to Your Funeral Part II
TTITLE9=Last Stop: This Town
TTITLE10=Baby Genius
TTITLE11=Climbing to the Moon
TTITLE12=Ant Farm
TTITLE13=Dead of Winter
TTITLE14=The Medication is Wearing Off
TTITLE15=P.S. You Rock My World
EXTD=
EXTT0=
EXTT1=
EXTT2=
EXTT3=
EXTT4=
EXTT5=
EXTT6=
EXTT7=
EXTT8=
EXTT9=
EXTT10=
EXTT11=
EXTT12=
EXTT13=
EXTT14=
EXTT15=
PLAYORDER=
